<svg width="320" height="56" viewBox="0 0 320 56" fill="none" xmlns="http://www.w3.org/2000/svg">
<path d="M6.45404 40.6002C4.202 40.5982 2.12848 39.4255 1.03854 37.5374C-0.0514073 35.6493 0.0139165 33.3433 1.20914 31.5146L12.3612 14.4569C13.5066 12.5995 15.6138 11.4839 17.8647 11.543C20.1156 11.6021 22.1558 12.8267 23.1933 14.7414C24.2308 16.6561 24.1023 18.9594 22.8576 20.7572L11.7122 37.8149C10.5786 39.5504 8.59099 40.6033 6.45404 40.6002Z" fill="#FB275D"/>
<path d="M25.4546 40.6002C23.2062 40.5982 21.1361 39.4282 20.048 37.5446C18.9598 35.661 19.025 33.3605 20.2183 31.5362L31.3487 14.519C32.4762 12.6345 34.5908 11.4922 36.8586 11.5423C39.1264 11.5925 41.1835 12.8271 42.2189 14.7594C43.2543 16.6917 43.1017 19.0116 41.8214 20.8043L30.6909 37.8215C29.5616 39.5491 27.5833 40.5989 25.4546 40.6002V40.6002Z" fill="#FFCC00"/>
<path d="M43.9794 40.6349C47.3854 40.6349 50.1465 37.8786 50.1465 34.4785C50.1465 31.0784 47.3854 28.3221 43.9794 28.3221C40.5734 28.3221 37.8123 31.0784 37.8123 34.4785C37.8123 37.8786 40.5734 40.6349 43.9794 40.6349Z" fill="#00CA72"/>
<path d="M247.798 51.3015L252.995 39.5388L241.592 13.5711H251.179L257.688 30.3679L264.348 13.5711H273.532L257.082 51.3015H247.798Z" fill="black"/>
<path d="M221.5 13.1723C225.739 13.1723 228.716 15.0663 230.229 17.5086V13.5711H238.858V41.3829H230.229V37.4453C228.665 39.8876 225.688 41.7816 221.5 41.7816C214.587 41.7816 209.138 36.1993 209.138 27.4271C209.138 18.6549 214.587 13.1723 221.5 13.1723ZM217.918 27.4271C217.918 31.863 220.794 34.3551 224.074 34.3551C227.353 34.3551 230.229 31.9129 230.229 27.477C230.229 23.041 227.353 20.5988 224.074 20.5988C220.794 20.5988 217.918 22.9912 217.918 27.4271Z" fill="black"/>
<path d="M188.087 13.1725C191.821 13.1725 195 14.8671 196.715 17.4091V4.5H205.394V41.383H196.715V37.3957C195.202 39.9376 192.225 41.7818 188.037 41.7818C181.124 41.7818 175.674 36.1995 175.674 27.4273C175.674 18.6551 181.124 13.1725 188.087 13.1725ZM184.454 27.4273C184.454 31.8632 187.33 34.3553 190.61 34.3553C193.89 34.3553 196.766 31.9131 196.766 27.4771C196.766 23.0412 193.89 20.599 190.61 20.599C187.33 20.599 184.454 22.9914 184.454 27.4273Z" fill="black"/>
<path d="M163.502 26.2808C163.502 22.4928 161.332 20.3994 158.103 20.3994C154.773 20.3994 152.653 22.4928 152.653 26.2808V41.3829H144.025V13.5711H152.653V17.3092C154.369 14.9168 157.396 13.272 161.181 13.272C167.74 13.272 172.08 17.6581 172.08 25.1344V41.3829H163.502V26.2808Z" fill="black"/>
<path d="M125.545 42.0308C117.27 42.0308 111.064 36.5481 111.064 27.4769C111.064 18.4057 117.421 12.9231 125.697 12.9231C133.972 12.9231 140.329 18.4057 140.329 27.4769C140.329 36.5481 133.871 42.0308 125.545 42.0308ZM119.793 27.4769C119.793 32.1621 122.467 34.4049 125.545 34.4049C128.623 34.4049 131.55 32.1621 131.55 27.4769C131.55 22.7419 128.674 20.5489 125.646 20.5489C122.568 20.5489 119.793 22.7419 119.793 27.4769Z" fill="black"/>
<path d="M60 13.5711H68.6284V17.1098C70.2935 14.8171 73.2201 13.272 76.853 13.272C81.142 13.272 84.5732 15.1162 86.4906 18.4556C88.3575 15.5149 91.8391 13.272 95.9767 13.272C102.94 13.272 107.431 17.6581 107.431 25.1344V41.3829H98.8528V26.2808C98.8528 22.6423 96.6831 20.6486 93.4538 20.6486C90.1236 20.6486 88.0548 22.6423 88.0548 26.2808V41.3829H79.4769V26.2808C79.4769 22.6423 77.3072 20.6486 74.0778 20.6486C70.7476 20.6486 68.6284 22.6423 68.6284 26.2808V41.3829H60V13.5711Z" fill="black"/>
<path d="M273.461 35.6907C273.461 34.5213 273.706 33.5033 274.197 32.6366C274.688 31.7562 275.366 31.0752 276.232 30.5937C277.113 30.1122 278.116 29.8714 279.242 29.8714C280.7 29.8714 281.898 30.2085 282.836 30.8826C283.788 31.5567 284.416 32.4922 284.719 33.689H282.598C282.396 33.0012 281.999 32.4578 281.407 32.0588C280.829 31.6599 280.108 31.4604 279.242 31.4604C278.116 31.4604 277.207 31.8318 276.514 32.5747C275.821 33.3038 275.474 34.3425 275.474 35.6907C275.474 37.0526 275.821 38.105 276.514 38.8479C277.207 39.5908 278.116 39.9622 279.242 39.9622C280.108 39.9622 280.829 39.7696 281.407 39.3844C281.984 38.9992 282.381 38.449 282.598 37.7336H284.719C284.402 38.8892 283.767 39.8178 282.814 40.5194C281.862 41.2073 280.671 41.5512 279.242 41.5512C278.116 41.5512 277.113 41.3104 276.232 40.8289C275.366 40.3474 274.688 39.6665 274.197 38.786C273.706 37.9056 273.461 36.8738 273.461 35.6907Z" fill="black"/>
<path d="M314.552 29.8508C315.475 29.8508 316.298 30.0365 317.02 30.408C317.742 30.7656 318.312 31.3091 318.73 32.0382C319.149 32.7673 319.358 33.6546 319.358 34.7002V41.3655H317.41V34.9684C317.41 33.8404 317.114 32.9805 316.522 32.389C315.945 31.7837 315.158 31.481 314.162 31.481C313.137 31.481 312.322 31.7974 311.715 32.4303C311.109 33.0493 310.806 33.9504 310.806 35.1335V41.3655H308.857V34.9684C308.857 33.8404 308.561 32.9805 307.97 32.389C307.392 31.7837 306.606 31.481 305.61 31.481C304.585 31.481 303.769 31.7974 303.163 32.4303C302.557 33.0493 302.254 33.9504 302.254 35.1335V41.3655H300.284V30.0572H302.254V31.6874C302.644 31.0958 303.163 30.6418 303.813 30.3254C304.477 30.009 305.206 29.8508 305.999 29.8508C306.995 29.8508 307.876 30.064 308.641 30.4905C309.406 30.917 309.976 31.5429 310.351 32.3683C310.683 31.5704 311.232 30.9514 311.997 30.5111C312.762 30.0709 313.613 29.8508 314.552 29.8508Z" fill="black"/>
<path d="M292.205 41.5512C291.093 41.5512 290.083 41.3104 289.173 40.8289C288.279 40.3474 287.571 39.6665 287.052 38.786C286.546 37.8918 286.294 36.86 286.294 35.6907C286.294 34.5351 286.554 33.5171 287.073 32.6366C287.607 31.7424 288.329 31.0614 289.238 30.5937C290.148 30.1122 291.165 29.8714 292.291 29.8714C293.417 29.8714 294.435 30.1122 295.344 30.5937C296.253 31.0614 296.968 31.7355 297.487 32.616C298.022 33.4964 298.289 34.5213 298.289 35.6907C298.289 36.86 298.014 37.8918 297.466 38.786C296.932 39.6665 296.203 40.3474 295.279 40.8289C294.355 41.3104 293.33 41.5512 292.205 41.5512ZM292.205 39.9003C292.912 39.9003 293.576 39.7421 294.197 39.4257C294.817 39.1093 295.315 38.6347 295.69 38.0019C296.08 37.369 296.275 36.5986 296.275 35.6907C296.275 34.7827 296.087 34.0123 295.712 33.3795C295.337 32.7467 294.846 32.2789 294.24 31.9763C293.634 31.6599 292.977 31.5017 292.27 31.5017C291.548 31.5017 290.884 31.6599 290.278 31.9763C289.686 32.2789 289.21 32.7467 288.849 33.3795C288.488 34.0123 288.307 34.7827 288.307 35.6907C288.307 36.6124 288.481 37.3897 288.827 38.0225C289.188 38.6553 289.664 39.1299 290.256 39.4464C290.848 39.749 291.497 39.9003 292.205 39.9003Z" fill="black"/>
<path d="M268.679 41.5512C268.105 41.5512 267.629 41.3689 267.251 41.0042C266.888 40.6237 266.707 40.156 266.707 39.6011C266.707 39.0462 266.888 38.5864 267.251 38.2218C267.629 37.8413 268.105 37.6511 268.679 37.6511C269.239 37.6511 269.7 37.8413 270.063 38.2218C270.425 38.5864 270.607 39.0462 270.607 39.6011C270.607 40.156 270.425 40.6237 270.063 41.0042C269.7 41.3689 269.239 41.5512 268.679 41.5512Z" fill="black"/>
</svg>
