<svg xmlns="http://www.w3.org/2000/svg" viewBox="0 0 1920 1080" width="1920" height="1080" preserveAspectRatio="xMidYMid slice">
<defs>
<linearGradient id="bg" x1="0.05" y1="0" x2="0.95" y2="1">
<stop offset="0" stop-color="#0A0C20"></stop>
<stop offset="0.45" stop-color="#191E52"></stop>
<stop offset="0.8" stop-color="#3A43A8"></stop>
<stop offset="1" stop-color="#6E79EA"></stop>
</linearGradient>
<radialGradient id="glow" cx="86.5%" cy="51.9%" r="55%">
<stop offset="0" stop-color="#8E97FF" stop-opacity="0.55"></stop>
<stop offset="0.5" stop-color="#5159C8" stop-opacity="0.25"></stop>
<stop offset="1" stop-color="#10132E" stop-opacity="0"></stop>
</radialGradient>
<radialGradient id="vign" cx="20%" cy="34%" r="85%">
<stop offset="0" stop-color="#05060F" stop-opacity="0.5"></stop>
<stop offset="0.62" stop-color="#05060F" stop-opacity="0"></stop>
</radialGradient>
<linearGradient id="g0" x1="0" y1="1" x2="1" y2="0"><stop offset="0" stop-color="#FFFFFF" stop-opacity="0.045"></stop><stop offset="1" stop-color="#FFFFFF" stop-opacity="0.100"></stop></linearGradient>
<linearGradient id="g1" x1="0" y1="1" x2="1" y2="0"><stop offset="0" stop-color="#FFFFFF" stop-opacity="0.054"></stop><stop offset="1" stop-color="#FFFFFF" stop-opacity="0.120"></stop></linearGradient>
<linearGradient id="g2" x1="0" y1="1" x2="1" y2="0"><stop offset="0" stop-color="#FFFFFF" stop-opacity="0.072"></stop><stop offset="1" stop-color="#FFFFFF" stop-opacity="0.160"></stop></linearGradient>
<linearGradient id="g3" x1="0" y1="1" x2="1" y2="0"><stop offset="0" stop-color="#FFFFFF" stop-opacity="0.054"></stop><stop offset="1" stop-color="#FFFFFF" stop-opacity="0.120"></stop></linearGradient>
<linearGradient id="g4" x1="0" y1="1" x2="1" y2="0"><stop offset="0" stop-color="#FFFFFF" stop-opacity="0.054"></stop><stop offset="1" stop-color="#FFFFFF" stop-opacity="0.120"></stop></linearGradient>
<linearGradient id="g5" x1="0" y1="1" x2="1" y2="0"><stop offset="0" stop-color="#FFFFFF" stop-opacity="0.072"></stop><stop offset="1" stop-color="#FFFFFF" stop-opacity="0.160"></stop></linearGradient>
<linearGradient id="g6" x1="0" y1="1" x2="1" y2="0"><stop offset="0" stop-color="#FFFFFF" stop-opacity="0.207"></stop><stop offset="1" stop-color="#FFFFFF" stop-opacity="0.460"></stop></linearGradient>
<linearGradient id="g7" x1="0" y1="1" x2="1" y2="0"><stop offset="0" stop-color="#FFFFFF" stop-opacity="0.279"></stop><stop offset="1" stop-color="#FFFFFF" stop-opacity="0.620"></stop></linearGradient>
<linearGradient id="g8" x1="0" y1="1" x2="1" y2="0"><stop offset="0" stop-color="#FFFFFF" stop-opacity="0.234"></stop><stop offset="1" stop-color="#FFFFFF" stop-opacity="0.520"></stop></linearGradient>
<linearGradient id="g9" x1="0" y1="1" x2="1" y2="0"><stop offset="0" stop-color="#FFFFFF" stop-opacity="0.135"></stop><stop offset="1" stop-color="#FFFFFF" stop-opacity="0.300"></stop></linearGradient>
<radialGradient id="gc"><stop offset="0" stop-color="#FFFFFF" stop-opacity="0.34"></stop><stop offset="1" stop-color="#FFFFFF" stop-opacity="0.14"></stop></radialGradient>
</defs>
<rect width="1920" height="1080" fill="url(#bg)"></rect>
<rect width="1920" height="1080" fill="url(#glow)"></rect>
<g><rect x="352" y="-80" width="156" height="300" rx="78" fill="url(#g0)" transform="rotate(-42 430 70)"></rect>
<rect x="802" y="-90" width="156" height="300" rx="78" fill="url(#g1)" transform="rotate(-42 880 60)"></rect>
<rect x="1202" y="-30" width="156" height="300" rx="78" fill="url(#g2)" transform="rotate(-42 1280 120)"></rect>
<rect x="282" y="235" width="156" height="470" rx="78" fill="url(#g3)" transform="rotate(-42 360 470)"></rect>
<rect x="302" y="645" width="156" height="430" rx="78" fill="url(#g4)" transform="rotate(-42 380 860)"></rect>
<rect x="722" y="830" width="156" height="360" rx="78" fill="url(#g5)" transform="rotate(-42 800 1010)"></rect>
<rect x="1462" y="65" width="156" height="470" rx="78" fill="url(#g6)" transform="rotate(-42 1540 300)"></rect>
<rect x="1402" y="765" width="156" height="430" rx="78" fill="url(#g7)" transform="rotate(-42 1480 980)"></rect>
<rect x="1772" y="700" width="156" height="360" rx="78" fill="url(#g8)" transform="rotate(-42 1850 880)"></rect>
<rect x="1062" y="860" width="156" height="300" rx="78" fill="url(#g9)" transform="rotate(-42 1140 1010)"></rect>
<circle cx="1430" cy="700" r="92" fill="url(#gc)"></circle></g>
<rect width="1920" height="1080" fill="url(#vign)"></rect>
</svg>